<svg width="133" height="65" viewBox="0 0 133 65" fill="none" xmlns="http://www.w3.org/2000/svg">
<path d="M0.234375 42V0.699998H2.33438V42H0.234375ZM4.43438 42V0.699998H6.53438V42H4.43438ZM8.63438 42V0.699998H14.9344V42H8.63438ZM21.2344 42V0.699998H23.3344V42H21.2344ZM25.4344 42V0.699998H31.7344V42H25.4344ZM11.9244 48.09H15.7044C17.0577 48.09 18.1077 48.2767 18.8544 48.65C19.6477 49.0233 20.3244 49.5833 20.8844 50.33C21.9577 51.73 22.4944 53.7133 22.4944 56.28C22.401 58.94 21.7944 60.9467 20.6744 62.3C19.5544 63.7 17.8044 64.3767 15.4244 64.33H11.9244V48.09ZM15.2844 62.93C18.8777 62.93 20.6744 60.76 20.6744 56.42C20.6744 54.2267 20.2777 52.5467 19.4844 51.38C18.6444 50.2133 17.3377 49.63 15.5644 49.63H13.6744V62.93H15.2844ZM33.8672 42V0.699998H40.1672V42H33.8672ZM42.2672 42V0.699998H48.5672V42H42.2672ZM50.6672 42V0.699998H52.7672V42H50.6672ZM54.8672 42V0.699998H56.9672V42H54.8672ZM63.2672 42V0.699998H65.3672V42H63.2672ZM45.2072 48.09H46.6772L50.6672 56.07L54.7272 48.09H56.1272V64.33H54.3772V52.08L50.8772 58.66H50.1772L46.8872 52.15V64.33H45.2072V48.09ZM67.5 42V0.699998H73.8V42H67.5ZM75.9 42V0.699998H78V42H75.9ZM80.1 42V0.699998H82.2V42H80.1ZM84.3 42V0.699998H90.6V42H84.3ZM96.9 42V0.699998H99V42H96.9ZM79.26 48.09H84.02C85.8867 48.09 87.24 48.51 88.08 49.35C88.9667 50.1433 89.41 51.2867 89.41 52.78C89.41 53.7133 89.1067 54.6 88.5 55.44C87.8933 56.28 87.1 56.84 86.12 57.12L89.9 64.33H87.87L84.23 57.19H81.08V64.33H79.26V48.09ZM84.23 55.58C85.35 55.58 86.19 55.3233 86.75 54.81C87.2633 54.3433 87.52 53.6667 87.52 52.78C87.52 51.8933 87.2633 51.17 86.75 50.61C86.19 50.0967 85.35 49.84 84.23 49.84H81.08V55.58H84.23ZM101.133 42V0.699998H107.433V42H101.133ZM109.533 42V0.699998H111.633V42H109.533ZM113.733 42V0.699998H120.033V42H113.733ZM126.333 42V0.699998H128.433V42H126.333ZM130.533 42V0.699998H132.633V42H130.533ZM112.963 48.09H122.903V49.7H114.643V55.02H121.503V56.7H114.643V62.72H122.833V64.33H112.963V48.09Z" fill="black"/>
</svg>
