<svg width="40" height="40" viewBox="0 0 40 40" fill="none" xmlns="http://www.w3.org/2000/svg">
<g id="Basket_empty">
<path id="Vector" d="M6.66663 6.66667H10.1051C10.855 6.66667 11.23 6.66667 11.5013 6.87846C11.7725 7.09026 11.8635 7.45404 12.0454 8.1816L12.5758 10.3035C12.9396 11.7586 13.1215 12.4862 13.664 12.9097C14.2065 13.3333 14.9565 13.3333 16.4564 13.3333H16.6666" stroke="#222222" stroke-width="2" stroke-linecap="round"/>
<path id="Rectangle 41" d="M30 28.3333H12.5848C11.4981 28.3333 10.9548 28.3333 10.6585 28.018C10.5993 27.9549 10.5485 27.8844 10.5074 27.8083C10.3019 27.4276 10.4737 26.9121 10.8174 25.8811V25.8811C11.1961 24.7449 11.3855 24.1768 11.8044 23.8167C11.891 23.7423 11.9837 23.6754 12.0816 23.6169C12.5558 23.3333 13.1546 23.3333 14.3523 23.3333H23.3333" stroke="#222222" stroke-width="2" stroke-linecap="round" stroke-linejoin="round"/>
<path id="Vector 339" d="M25.8612 23.3333H16.7218C15.1035 23.3333 14.2943 23.3333 13.7348 22.8594C13.1753 22.3854 13.0423 21.5873 12.7762 19.9909L12.2488 16.8265C11.9786 15.205 11.8434 14.3942 12.2928 13.8638C12.7421 13.3333 13.5641 13.3333 15.208 13.3333H30.0972C31.5476 13.3333 32.2728 13.3333 32.5659 13.8076C32.859 14.2819 32.5347 14.9305 31.8861 16.2278L29.4389 21.1222L29.4389 21.1222C28.9009 22.198 28.632 22.7359 28.1487 23.0346C27.6654 23.3333 27.064 23.3333 25.8612 23.3333Z" stroke="#222222" stroke-width="2" stroke-linecap="round"/>
<circle id="Ellipse 167" cx="28.3333" cy="33.3333" r="1.66667" fill="#222222"/>
<circle id="Ellipse 168" cx="15" cy="33.3333" r="1.66667" fill="#222222"/>
</g>
</svg>
